{"title":"My Science Project (1985)","uid":5854896,"size":734580681,"categoryP":"video","categoryS":"movies","magnet":"?xt=urn:btih:ec74989000e8eaf5fe5c78827b9653d08d651bb7&amp;dn=My+Science+Project+%281985%29&amp;tr=udp%3A%2F%2Ftracker.openbittorrent.com%3A80&amp;tr=udp%3A%2F%2Fopen.demonii.com%3A1337&amp;tr=udp%3A%2F%2Ftracker.coppersurfer.tk%3A6969&amp;tr=udp%3A%2F%2Fexodus.desync.com%3A6969","seeders":9,"leechers":2,"uploader":".BONE.","files":8,"time":1285565097,"description":"Michael and Ellie break into a military junkyard to find a science project for Michael's class, and discover a strange glowing orb which absorbs electricity. When the orb begins to blend past, present, and future, its up to Michael and Ellie to stop the orb and save mankind.\n\nVideo\nID : 0\nFormat : MPEG-4 Visual\nFormat profile : Advanced Simple@L5\nFormat settings, BVOP : Yes\nFormat settings, QPel : No\nFormat settings, GMC : No warppoints\nFormat settings, Matrix : Custom\nCodec ID : XVID\nCodec ID/Hint : XviD\nDuration : 1h 51mn\nBit rate : 747 Kbps\nWidth : 720 pixels\nHeight : 320 pixels\nDisplay aspect ratio : 2.25:1\nFrame rate : 23.976 fps\nColor space : YUV\nChroma subsampling : 4:2:0\nBit depth : 8 bits\nScan type : Progressive\nBits/(Pixel*Frame) : 0.135\nStream size : 598 MiB (85%)\nWriting library : XviD 1.2.1 (UTC 2008-12-04)\n\nAudio\nID : 1\nFormat : MPEG Audio\nFormat version : Version 1\nFormat profile : Layer 3\nMode : Joint stereo\nMode extension : MS Stereo\nCodec ID : 55\nCodec ID/Hint : MP3\nDuration : 1h 51mn\nBit rate mode : Variable\nBit rate : 115 Kbps\nNominal bit rate : 128 Kbps\nChannel(s) : 2 channels\nSampling rate : 48.0 KHz\nStream size : 92.3 MiB (13%)\nAlignment : Aligned on interleaves\nInterleave, duration : 24 ms (0.58 video frame)\nInterleave, preload duration : 159 ms\nWriting library : LAME3.98r\nEncoding settings : -m j -V 4 -q 2 -lowpass 17 --abr 128\n &lt;a href=&quot;\nhttp://www.imdb.com/title/tt0089652/&quot; rel=&quot;nofollow&quot; target=&quot;_NEW&quot;&gt;\nhttp://www.imdb.com/title/tt0089652/&lt;/a&gt;","torrent":{"xt":"urn:btih:ec74989000e8eaf5fe5c78827b9653d08d651bb7","amp;dn":"My+Science+Project+%281985%29","amp;tr":["udp%3A%2F%2Ftracker.openbittorrent.com%3A80","udp%3A%2F%2Fopen.demonii.com%3A1337","udp%3A%2F%2Ftracker.coppersurfer.tk%3A6969","udp%3A%2F%2Fexodus.desync.com%3A6969"],"infoHash":"ec74989000e8eaf5fe5c78827b9653d08d651bb7","infoHashBuffer":{"type":"Buffer","data":[236,116,152,144,0,232,234,245,254,92,120,130,123,150,83,208,141,101,27,183]},"announce":[],"urlList":[]}}